HIERARCHY
ROOT hip
{
  OFFSET -0.00173652 90.8858 0.72379
  CHANNELS 6 Xposition Yposition Zposition Zrotation Xrotation Yrotation
  JOINT abdomen
  {
    OFFSET 0 7.2397 0
    CHANNELS 6 Xposition Yposition Zposition Zrotation Xrotation Yrotation
    JOINT chest
    {
      OFFSET 0 16.546 0
      CHANNELS 6 Xposition Yposition Zposition Zrotation Xrotation Yrotation
      JOINT neck
      {
        OFFSET 0 34.2149 0
        CHANNELS 6 Xposition Yposition Zposition Zrotation Xrotation Yrotation
        JOINT head
        {
          OFFSET 0 6.2923 0
          CHANNELS 6 Xposition Yposition Zposition Zrotation Xrotation Yrotation
          End Site
          {
            OFFSET 0 21.2161 0
          }
        }
      }
      JOINT lCollar
      {
        OFFSET 4.0639 26.6115 -1.1234
        CHANNELS 6 Xposition Yposition Zposition Zrotation Xrotation Yrotation
        JOINT lShldr
        {
          OFFSET 14.1772 0 0
          CHANNELS 6 Xposition Yposition Zposition Zrotation Xrotation Yrotation
          JOINT lForeArm
          {
            OFFSET 26.1234 0 0
            CHANNELS 6 Xposition Yposition Zposition Zrotation Xrotation Yrotation
            JOINT lHand
            {
              OFFSET 27.7188 0 0
              CHANNELS 6 Xposition Yposition Zposition Zrotation Xrotation Yrotation
              JOINT lThumb1
              {
                OFFSET 2.2979 -0.4685 1.8313
                CHANNELS 6 Xposition Yposition Zposition Zrotation Xrotation Yrotation
                JOINT lThumb2
                {
                  OFFSET 5.2953 0 0
                  CHANNELS 6 Xposition Yposition Zposition Zrotation Xrotation Yrotation
                  JOINT lThumb3
                  {
                    OFFSET 3.0181 0 0
                    CHANNELS 6 Xposition Yposition Zposition Zrotation Xrotation Yrotation
                    End Site
                    {
                      OFFSET 2.6294 0 0
                    }
                  }
                }
              }
              JOINT lIndex1
              {
                OFFSET 9.3793 0.2991 2.5924
                CHANNELS 6 Xposition Yposition Zposition Zrotation Xrotation Yrotation
                JOINT lIndex2
                {
                  OFFSET 4.3461 0 0
                  CHANNELS 6 Xposition Yposition Zposition Zrotation Xrotation Yrotation
                  JOINT lIndex3
                  {
                    OFFSET 2.1666 0 0
                    CHANNELS 6 Xposition Yposition Zposition Zrotation Xrotation Yrotation
                    End Site
                    {
                      OFFSET 2.2048 0 0
                    }
                  }
                }
              }
              JOINT lMid1
              {
                OFFSET 9.4769 0.8376 0.2947
                CHANNELS 6 Xposition Yposition Zposition Zrotation Xrotation Yrotation
                JOINT lMid2
                {
                  OFFSET 4.772 0 0
                  CHANNELS 6 Xposition Yposition Zposition Zrotation Xrotation Yrotation
                  JOINT lMid3
                  {
                    OFFSET 2.8722 0 0
                    CHANNELS 6 Xposition Yposition Zposition Zrotation Xrotation Yrotation
                    End Site
                    {
                      OFFSET 2.0959 0 0
                    }
                  }
                }
              }
              JOINT lRing1
              {
                OFFSET 8.6586 1.0176 -1.7016
                CHANNELS 6 Xposition Yposition Zposition Zrotation Xrotation Yrotation
                JOINT lRing2
                {
                  OFFSET 4.5461 0 0
                  CHANNELS 6 Xposition Yposition Zposition Zrotation Xrotation Yrotation
                  JOINT lRing3
                  {
                    OFFSET 2.506 0 0
                    CHANNELS 6 Xposition Yposition Zposition Zrotation Xrotation Yrotation
                    End Site
                    {
                      OFFSET 2.2023 0 0
                    }
                  }
                }
              }
              JOINT lPinky1
              {
                OFFSET 7.6901 0.6618 -3.9096
                CHANNELS 6 Xposition Yposition Zposition Zrotation Xrotation Yrotation
                JOINT lPinky2
                {
                  OFFSET 3.2119 0 0
                  CHANNELS 6 Xposition Yposition Zposition Zrotation Xrotation Yrotation
                  JOINT lPinky3
                  {
                    OFFSET 1.924 0 0
                    CHANNELS 6 Xposition Yposition Zposition Zrotation Xrotation Yrotation
                    End Site
                    {
                      OFFSET 1.7829 0 0
                    }
                  }
                }
              }
            }
          }
        }
      }
      JOINT rCollar
      {
        OFFSET -4.0677 26.6109 -1.1234
        CHANNELS 6 Xposition Yposition Zposition Zrotation Xrotation Yrotation
        JOINT rShldr
        {
          OFFSET -14.1772 0 0
          CHANNELS 6 Xposition Yposition Zposition Zrotation Xrotation Yrotation
          JOINT rForeArm
          {
            OFFSET -26.1234 0 0
            CHANNELS 6 Xposition Yposition Zposition Zrotation Xrotation Yrotation
            JOINT rHand
            {
              OFFSET -27.7188 0 0
              CHANNELS 6 Xposition Yposition Zposition Zrotation Xrotation Yrotation
              JOINT rThumb1
              {
                OFFSET -2.2979 -0.4684 1.8313
                CHANNELS 6 Xposition Yposition Zposition Zrotation Xrotation Yrotation
                JOINT rThumb2
                {
                  OFFSET -5.2953 0 0
                  CHANNELS 6 Xposition Yposition Zposition Zrotation Xrotation Yrotation
                  JOINT rThumb3
                  {
                    OFFSET -3.0181 0 0
                    CHANNELS 6 Xposition Yposition Zposition Zrotation Xrotation Yrotation
                    End Site
                    {
                      OFFSET -2.6294 0 0
                    }
                  }
                }
              }
              JOINT rIndex1
              {
                OFFSET -9.3793 0.2991 2.5924
                CHANNELS 6 Xposition Yposition Zposition Zrotation Xrotation Yrotation
                JOINT rIndex2
                {
                  OFFSET -4.3461 0 0
                  CHANNELS 6 Xposition Yposition Zposition Zrotation Xrotation Yrotation
                  JOINT rIndex3
                  {
                    OFFSET -2.1666 0 0
                    CHANNELS 6 Xposition Yposition Zposition Zrotation Xrotation Yrotation
                    End Site
                    {
                      OFFSET -2.2048 0 0
                    }
                  }
                }
              }
              JOINT rMid1
              {
                OFFSET -9.4769 0.8376 0.2947
                CHANNELS 6 Xposition Yposition Zposition Zrotation Xrotation Yrotation
                JOINT rMid2
                {
                  OFFSET -4.772 0 0
                  CHANNELS 6 Xposition Yposition Zposition Zrotation Xrotation Yrotation
                  JOINT rMid3
                  {
                    OFFSET -2.8722 0 0
                    CHANNELS 6 Xposition Yposition Zposition Zrotation Xrotation Yrotation
                    End Site
                    {
                      OFFSET -2.0959 0 0
                    }
                  }
                }
              }
              JOINT rRing1
              {
                OFFSET -8.6586 1.0176 -1.7016
                CHANNELS 6 Xposition Yposition Zposition Zrotation Xrotation Yrotation
                JOINT rRing2
                {
                  OFFSET -4.5461 0 0
                  CHANNELS 6 Xposition Yposition Zposition Zrotation Xrotation Yrotation
                  JOINT rRing3
                  {
                    OFFSET -2.506 0 0
                    CHANNELS 6 Xposition Yposition Zposition Zrotation Xrotation Yrotation
                    End Site
                    {
                      OFFSET -2.2023 0 0
                    }
                  }
                }
              }
              JOINT rPinky1
              {
                OFFSET -7.6901 0.6618 -3.9096
                CHANNELS 6 Xposition Yposition Zposition Zrotation Xrotation Yrotation
                JOINT rPinky2
                {
                  OFFSET -3.2119 0 0
                  CHANNELS 6 Xposition Yposition Zposition Zrotation Xrotation Yrotation
                  JOINT rPinky3
                  {
                    OFFSET -1.924 0 0
                    CHANNELS 6 Xposition Yposition Zposition Zrotation Xrotation Yrotation
                    End Site
                    {
                      OFFSET -1.7829 0 0
                    }
                  }
                }
              }
            }
          }
        }
      }
    }
  }
  JOINT lThigh
  {
    OFFSET 8.7379 -0.0029 0.0005
    CHANNELS 6 Xposition Yposition Zposition Zrotation Xrotation Yrotation
    JOINT lShin
    {
      OFFSET 0 -46.6676 0
      CHANNELS 6 Xposition Yposition Zposition Zrotation Xrotation Yrotation
      JOINT lFoot
      {
        OFFSET 0 -40.1476 0
        CHANNELS 6 Xposition Yposition Zposition Zrotation Xrotation Yrotation
        JOINT lToes
        {
          OFFSET 0 -8.8846 14.2294
          CHANNELS 6 Xposition Yposition Zposition Zrotation Xrotation Yrotation
          End Site
          {
            OFFSET 0 0 6.296
          }
        }
      }
    }
  }
  JOINT rThigh
  {
    OFFSET -8.7379 0.0029 -0.0005
    CHANNELS 6 Xposition Yposition Zposition Zrotation Xrotation Yrotation
    JOINT rShin
    {
      OFFSET 0 -46.6676 0
      CHANNELS 6 Xposition Yposition Zposition Zrotation Xrotation Yrotation
      JOINT rFoot
      {
        OFFSET 0 -40.1476 0
        CHANNELS 6 Xposition Yposition Zposition Zrotation Xrotation Yrotation
        JOINT rToes
        {
          OFFSET 0 -8.8846 14.2294
          CHANNELS 6 Xposition Yposition Zposition Zrotation Xrotation Yrotation
          End Site
          {
            OFFSET 0 0 6.296
          }
        }
      }
    }
  }
}
MOTION
Frames:	4
Frame Time:	0.0333333
-0.00173652 90.8858 0.72379 -2.22169 -4.4765 -16.7346 0 7.2397 0 -0.109627 -1.43519 2.01529 2.22045e-16 16.546 3.55271e-15 -0.035433 -1.0087 4.03508 0 34.2149 0 4.31537 31.0428 -0.227417 -1.77636e-15 6.2923 0 2.29456 -4.29133 7.93142 4.0639 26.6115 -1.1234 11.7409 -4.38402 -4.09044 14.1772 0 0 -27.008 13.3567 -76.0208 26.1234 0 0 -0.482984 -0.985139 -20.2311 27.7188 -2.84217e-14 -3.55271e-15 -157.1 -63.3631 -145.167 2.2979 -0.4685 1.8313 54.8859 65.607 -75.7795 5.2953 0 -1.42109e-14 -8.70848 2.76102 2.42477 3.0181 -1.42109e-14 2.13163e-14 11.6481 0.611013 2.85779 9.3793 0.2991 2.5924 -38.0891 -3.31663 6.64974 4.3461 -7.10543e-15 0 -43.0272 -3.23743 8.8982 2.1666 1.42109e-14 -2.84217e-14 -23.7386 -1.06851 4.64303 9.4769 0.8376 0.2947 -37.748 -6.09241 6.67377 4.772 -1.42109e-14 2.84217e-14 -42.4082 -4.12447 10.8355 2.8722 7.10543e-15 -2.84217e-14 -17.356 -0.614987 6.23527 8.6586 1.0176 -1.7016 -38.5413 0.565088 6.63887 4.5461 7.10543e-15 0 -43.6386 -2.47964 6.1882 2.506 -7.10543e-15 2.84217e-14 -15.0998 -0.246849 3.38499 7.6901 0.6618 -3.9096 -35.7796 -10.4633 10.8479 3.2119 -7.10543e-15 2.84217e-14 -42.7533 -2.71731 11.1509 1.924 -7.10543e-15 -2.84217e-14 -16.3304 -0.790016 7.55808 -4.0677 26.6109 -1.1234 -2.45682 -4.51199 -9.65492 -14.1772 2.84217e-14 0 5.22199 8.58809 104.71 -26.1234 2.84217e-14 1.77636e-15 0.400541 -0.867086 17.5893 -27.7188 2.84217e-14 -1.77636e-15 -32.0445 -64.0333 -43.6359 -2.2979 -0.4684 1.8313 -55.004 65.3178 75.4387 -5.2953 0 0 9.69081 2.7701 -2.07064 -3.0181 -2.84217e-14 0 -13.4379 0.507331 -2.20404 -9.3793 0.2991 2.5924 54.1737 -5.58399 -9.15872 -4.3461 0 0 59.0365 -6.12023 -11.2702 -2.1666 7.10543e-15 -1.42109e-14 31.8036 -1.9164 -6.26813 -9.4769 0.8376 0.2947 53.724 -8.34461 -9.21327 -4.772 0 2.84217e-14 58.099 -7.57428 -13.7519 -2.8722 7.10543e-15 -1.42109e-14 25.3199 -1.42811 -8.33523 -8.6586 1.0176 -1.7016 54.7956 -1.72561 -9.11906 -4.5461 0 -2.84217e-14 59.9556 -4.52194 -7.83091 -2.506 -7.10543e-15 0 23.2969 -0.673153 -4.62994 -7.6901 0.6618 -3.9096 52.966 -12.9037 -9.35313 -3.2119 0 -2.84217e-14 56.2138 -9.60227 -17.874 -1.924 -2.13163e-14 0 24.0594 -1.78513 -10.2832 8.7379 -0.0029 0.0005 11.8073 -17.7891 35.8531 6.66134e-16 -46.6676 0 18.4945 40.3944 -2.16063 -3.55271e-15 -40.1476 1.77636e-15 -11.9804 -14.9708 6.1462 4.44089e-15 -8.8846 14.2294 0.0001 -4.96962e-17 3.18055e-15 -8.7379 0.0029 -0.0005 -8.34246 -15.2515 -30.7431 2.22045e-15 -46.6676 -7.10543e-15 -17.4186 40.4841 3.47208 0 -40.1476 -8.88178e-16 12.8554 -18.0174 -5.79907 0 -8.8846 14.2294 2.75869e-33 -4.96962e-17 3.18055e-15 
0.00130957 90.8847 0.73414 -2.21005 -4.45997 -16.7107 0 7.2397 0 -0.121511 -1.44255 2.02378 4.44089e-16 16.546 -1.77636e-15 -0.0594329 -1.02382 4.05349 0 34.2149 3.55271e-15 4.35175 31.0671 -0.252716 0 6.2923 0 2.25907 -4.19601 7.8799 4.0639 26.6115 -1.1234 11.8226 -4.37954 -4.22016 14.1772 0 -7.10543e-15 -27.0355 13.3372 -75.9312 26.1234 0 0 -0.487604 -0.991432 -20.3746 27.7188 0 1.77636e-15 -157.625 -63.2778 -145.711 2.2979 -0.4685 1.8313 54.8859 65.607 -75.7795 5.2953 -1.42109e-14 0 -8.70848 2.76102 2.42477 3.0181 0 0 11.6481 0.611013 2.85779 9.3793 0.2991 2.5924 -38.0891 -3.31663 6.64974 4.3461 -1.42109e-14 0 -43.0272 -3.23743 8.8982 2.1666 0 2.84217e-14 -23.7386 -1.06851 4.64303 9.4769 0.8376 0.2947 -37.748 -6.09241 6.67377 4.772 1.42109e-14 -2.84217e-14 -42.4082 -4.12447 10.8355 2.8722 0 0 -17.356 -0.614987 6.23527 8.6586 1.0176 -1.7016 -38.5413 0.565088 6.63887 4.5461 -1.42109e-14 2.84217e-14 -43.6386 -2.47964 6.1882 2.506 0 0 -15.0998 -0.246849 3.38499 7.6901 0.6618 -3.9096 -35.7796 -10.4633 10.8479 3.2119 0 2.84217e-14 -42.7533 -2.71731 11.1509 1.924 0 0 -16.3304 -0.790016 7.55808 -4.0677 26.6109 -1.1234 -2.40979 -4.52998 -9.71885 -14.1772 -2.84217e-14 -3.55271e-15 5.2003 8.59757 104.67 -26.1234 -2.84217e-14 0 0.401578 -0.868648 17.6237 -27.7188 2.84217e-14 0 -32.231 -63.9754 -43.9708 -2.2979 -0.4684 1.8313 -55.004 65.3178 75.4387 -5.2953 0 0 9.69081 2.7701 -2.07064 -3.0181 0 0 -13.4379 0.507331 -2.20404 -9.3793 0.2991 2.5924 54.1737 -5.58399 -9.15872 -4.3461 -7.10543e-15 -2.84217e-14 59.0365 -6.12023 -11.2702 -2.1666 0 0 31.8036 -1.9164 -6.26813 -9.4769 0.8376 0.2947 53.724 -8.34461 -9.21327 -4.772 0 0 58.099 -7.57428 -13.7519 -2.8722 0 1.42109e-14 25.3199 -1.42811 -8.33523 -8.6586 1.0176 -1.7016 54.7956 -1.72561 -9.11906 -4.5461 0 0 59.9556 -4.52194 -7.83091 -2.506 -7.10543e-15 0 23.2969 -0.673153 -4.62994 -7.6901 0.6618 -3.9096 52.966 -12.9037 -9.35313 -3.2119 0 0 56.2138 -9.60227 -17.874 -1.924 0 0 24.0594 -1.78513 -10.2832 8.7379 -0.0029 0.0005 11.8313 -17.7949 35.9434 2.22045e-16 -46.6676 0 18.5053 40.3934 -2.23509 -1.77636e-15 -40.1476 3.55271e-15 -11.9643 -14.9874 6.13898 0 -8.8846 14.2294 0.0001 -1.98785e-16 -1.59028e-14 -8.7379 0.0029 -0.0005 -8.35319 -15.2608 -30.825 -1.77636e-15 -46.6676 0 -17.4847 40.4652 3.54476 1.77636e-15 -40.1476 8.88178e-16 12.8764 -18.0204 -5.79099 1.77636e-15 -8.8846 14.2294 1.98785e-16 -4.96962e-17 -0 
0.00839979 90.8796 0.746173 -2.19007 -4.44699 -16.6895 0 7.2397 0 -0.13514 -1.44345 2.02474 2.22045e-16 16.546 -1.77636e-15 -0.0871691 -1.02611 4.05691 4.44089e-16 34.2149 0 4.37732 31.0839 -0.272384 0 6.2923 1.42109e-14 2.23546 -4.12882 7.83679 4.0639 26.6115 -1.1234 11.9124 -4.37181 -4.39545 14.1772 -2.84217e-14 -7.10543e-15 -27.1682 13.2671 -75.719 26.1234 0 -3.55271e-15 -0.495043 -1.00148 -20.6039 27.7188 2.84217e-14 0 -158.411 -63.2579 -146.524 2.2979 -0.4685 1.8313 54.8859 65.607 -75.7795 5.2953 -1.42109e-14 0 -8.70848 2.76102 2.42477 3.0181 0 0 11.6481 0.611013 2.85779 9.3793 0.2991 2.5924 -38.0891 -3.31663 6.64974 4.3461 -7.10543e-15 0 -43.0272 -3.23743 8.8982 2.1666 0 2.84217e-14 -23.7386 -1.06851 4.64303 9.4769 0.8376 0.2947 -37.748 -6.09241 6.67377 4.772 -1.42109e-14 0 -42.4082 -4.12447 10.8355 2.8722 0 2.84217e-14 -17.356 -0.614987 6.23527 8.6586 1.0176 -1.7016 -38.5413 0.565088 6.63887 4.5461 0 0 -43.6386 -2.47964 6.1882 2.506 -7.10543e-15 0 -15.0998 -0.246849 3.38499 7.6901 0.6618 -3.9096 -35.7796 -10.4633 10.8479 3.2119 7.10543e-15 0 -42.7533 -2.71731 11.1509 1.924 7.10543e-15 0 -16.3304 -0.790016 7.55808 -4.0677 26.6109 -1.1234 -2.35293 -4.54361 -9.78014 -14.1772 0 0 5.15155 8.58265 104.666 -26.1234 0 -1.77636e-15 0.401933 -0.869179 17.6354 -27.7188 2.84217e-14 -1.77636e-15 -32.1124 -63.9304 -44.0304 -2.2979 -0.4684 1.8313 -55.004 65.3178 75.4387 -5.2953 2.84217e-14 7.10543e-15 9.69081 2.7701 -2.07064 -3.0181 2.84217e-14 0 -13.4379 0.507331 -2.20404 -9.3793 0.2991 2.5924 54.1737 -5.58399 -9.15872 -4.3461 0 2.84217e-14 59.0365 -6.12023 -11.2702 -2.1666 0 0 31.8036 -1.9164 -6.26813 -9.4769 0.8376 0.2947 53.724 -8.34461 -9.21327 -4.772 -7.10543e-15 -2.84217e-14 58.099 -7.57428 -13.7519 -2.8722 7.10543e-15 1.42109e-14 25.3199 -1.42811 -8.33523 -8.6586 1.0176 -1.7016 54.7956 -1.72561 -9.11906 -4.5461 -7.10543e-15 2.84217e-14 59.9556 -4.52194 -7.83091 -2.506 7.10543e-15 1.42109e-14 23.2969 -0.673153 -4.62994 -7.6901 0.6618 -3.9096 52.966 -12.9037 -9.35313 -3.2119 0 0 56.2138 -9.60227 -17.874 -1.924 7.10543e-15 -1.42109e-14 24.0594 -1.78513 -10.2832 8.7379 -0.0029 0.0005 11.8704 -17.796 36.1095 8.88178e-16 -46.6676 0 18.5283 40.3987 -2.37128 0 -40.1476 0 -11.9324 -15.0182 6.12494 -2.66454e-15 -8.8846 14.2294 0.0001 1.49089e-16 -0 -8.7379 0.0029 -0.0005 -8.3879 -15.2784 -30.901 -8.88178e-16 -46.6676 7.10543e-15 -17.5306 40.474 3.61641 -5.32907e-15 -40.1476 0 12.8873 -18.0355 -5.78311 1.77636e-15 -8.8846 14.2294 1.98785e-16 -4.96962e-17 3.18055e-15 
0.0184615 90.871 0.759531 -2.1689 -4.44106 -16.6687 2.22045e-16 7.2397 -1.77636e-15 -0.147109 -1.43575 2.01341 4.44089e-16 16.546 0 -0.112557 -1.01119 4.03554 4.44089e-16 34.2149 1.77636e-15 4.38828 31.0913 -0.279828 0 6.2923 -1.42109e-14 2.22604 -4.10972 7.8263 4.0639 26.6115 -1.1234 11.9451 -4.35776 -4.55771 14.1772 2.84217e-14 3.55271e-15 -27.3697 13.1605 -75.4462 26.1234 0 0 -0.50386 -1.01329 -20.8743 27.7188 0 -3.55271e-15 -159.197 -63.3527 -147.349 2.2979 -0.4685 1.8313 54.8859 65.607 -75.7795 5.2953 0 1.42109e-14 -8.70848 2.76102 2.42477 3.0181 -1.42109e-14 2.84217e-14 11.6481 0.611013 2.85779 9.3793 0.2991 2.5924 -38.0891 -3.31663 6.64974 4.3461 7.10543e-15 2.84217e-14 -43.0272 -3.23743 8.8982 2.1666 -7.10543e-15 2.84217e-14 -23.7386 -1.06851 4.64303 9.4769 0.8376 0.2947 -37.748 -6.09241 6.67377 4.772 -7.10543e-15 -2.84217e-14 -42.4082 -4.12447 10.8355 2.8722 0 0 -17.356 -0.614987 6.23527 8.6586 1.0176 -1.7016 -38.5413 0.565088 6.63887 4.5461 0 -2.84217e-14 -43.6386 -2.47964 6.1882 2.506 7.10543e-15 0 -15.0998 -0.246849 3.38499 7.6901 0.6618 -3.9096 -35.7796 -10.4633 10.8479 3.2119 1.42109e-14 0 -42.7533 -2.71731 11.1509 1.924 0 0 -16.3304 -0.790016 7.55808 -4.0677 26.6109 -1.1234 -2.29495 -4.55174 -9.82531 -14.1772 0 -7.10543e-15 5.09794 8.54508 104.693 -26.1234 -2.84217e-14 -3.55271e-15 0.401709 -0.868846 17.6281 -27.7188 0 3.55271e-15 -31.6861 -63.8904 -43.8014 -2.2979 -0.4684 1.8313 -55.004 65.3178 75.4387 -5.2953 2.84217e-14 0 9.69081 2.7701 -2.07064 -3.0181 0 0 -13.4379 0.507331 -2.20404 -9.3793 0.2991 2.5924 54.1737 -5.58399 -9.15872 -4.3461 0 0 59.0365 -6.12023 -11.2702 -2.1666 7.10543e-15 -1.42109e-14 31.8036 -1.9164 -6.26813 -9.4769 0.8376 0.2947 53.724 -8.34461 -9.21327 -4.772 0 0 58.099 -7.57428 -13.7519 -2.8722 1.42109e-14 -1.42109e-14 25.3199 -1.42811 -8.33523 -8.6586 1.0176 -1.7016 54.7956 -1.72561 -9.11906 -4.5461 0 2.84217e-14 59.9556 -4.52194 -7.83091 -2.506 0 -1.42109e-14 23.2969 -0.673153 -4.62994 -7.6901 0.6618 -3.9096 52.966 -12.9037 -9.35313 -3.2119 0 0 56.2138 -9.60227 -17.874 -1.924 0 -1.42109e-14 24.0594 -1.78513 -10.2832 8.7379 -0.0029 0.0005 11.9246 -17.7912 36.3327 8.88178e-16 -46.6676 7.10543e-15 18.5626 40.4109 -2.56748 1.77636e-15 -40.1476 0 -11.8845 -15.0618 6.10768 8.88178e-16 -8.8846 14.2294 0.0001 4.96962e-17 -3.18055e-15 -8.7379 0.0029 -0.0005 -8.44629 -15.2925 -30.9923 -3.55271e-15 -46.6676 7.10543e-15 -17.5551 40.5051 3.70398 1.77636e-15 -40.1476 -1.77636e-15 12.8818 -18.0647 -5.77815 0 -8.8846 14.2294 9.93923e-17 -9.93923e-17 9.54166e-15 
